<mxfile host="app.diagrams.net" modified="2023-05-31T13:26:42.058Z" agent="Mozilla/5.0 (Windows NT 10.0; Win64; x64) AppleWebKit/537.36 (KHTML, like Gecko) Chrome/113.0.0.0 Safari/537.36" etag="nvEAerPFohRQN7mtx4tC" version="21.3.6" type="google">
  <diagram name="Page-1" id="U2hgSmzi5tjOQSAahtKx">
    <mxGraphModel grid="1" page="1" gridSize="10" guides="1" tooltips="1" connect="1" arrows="1" fold="1" pageScale="1" pageWidth="850" pageHeight="1100" math="0" shadow="0">
      <root>
        <mxCell id="0" />
        <mxCell id="1" parent="0" />
        <mxCell id="s25pMjtrkpPoY_bV6GMZ-6" value="Vendor" style="swimlane;startSize=20;html=1;" vertex="1" parent="1">
          <mxGeometry x="570" y="-1040" width="210" height="460" as="geometry" />
        </mxCell>
        <mxCell id="Mbk2w01z_fALKFXVie-h-27" style="edgeStyle=orthogonalEdgeStyle;rounded=0;orthogonalLoop=1;jettySize=auto;html=1;exitX=0.5;exitY=1;exitDx=0;exitDy=0;" edge="1" parent="s25pMjtrkpPoY_bV6GMZ-6" source="Mbk2w01z_fALKFXVie-h-17" target="Mbk2w01z_fALKFXVie-h-26">
          <mxGeometry relative="1" as="geometry" />
        </mxCell>
        <mxCell id="Mbk2w01z_fALKFXVie-h-17" value="vendor receives user request&amp;nbsp;" style="rounded=1;whiteSpace=wrap;html=1;" vertex="1" parent="s25pMjtrkpPoY_bV6GMZ-6">
          <mxGeometry x="50" y="240" width="110" height="50" as="geometry" />
        </mxCell>
        <mxCell id="Mbk2w01z_fALKFXVie-h-26" value="" style="ellipse;html=1;shape=endState;fillColor=#000000;strokeColor=#ff0000;" vertex="1" parent="s25pMjtrkpPoY_bV6GMZ-6">
          <mxGeometry x="90" y="330" width="30" height="30" as="geometry" />
        </mxCell>
        <mxCell id="s25pMjtrkpPoY_bV6GMZ-5" value="Program&lt;span style=&quot;white-space: pre;&quot;&gt;&#x9;&lt;/span&gt;" style="swimlane;startSize=20;html=1;" vertex="1" parent="1">
          <mxGeometry x="300" y="-1040" width="270" height="460" as="geometry" />
        </mxCell>
        <mxCell id="Mbk2w01z_fALKFXVie-h-1" value="display &quot;contact vendor&quot; form&amp;nbsp;" style="rounded=1;whiteSpace=wrap;html=1;" vertex="1" parent="s25pMjtrkpPoY_bV6GMZ-5">
          <mxGeometry x="30" y="80" width="95" height="30" as="geometry" />
        </mxCell>
        <mxCell id="Mbk2w01z_fALKFXVie-h-21" style="edgeStyle=orthogonalEdgeStyle;rounded=0;orthogonalLoop=1;jettySize=auto;html=1;exitX=1;exitY=0.5;exitDx=0;exitDy=0;entryX=0.088;entryY=0.47;entryDx=0;entryDy=0;entryPerimeter=0;" edge="1" parent="s25pMjtrkpPoY_bV6GMZ-5" source="Mbk2w01z_fALKFXVie-h-13" target="Mbk2w01z_fALKFXVie-h-18">
          <mxGeometry relative="1" as="geometry" />
        </mxCell>
        <mxCell id="Mbk2w01z_fALKFXVie-h-13" value="processes Client request" style="rounded=1;whiteSpace=wrap;html=1;" vertex="1" parent="s25pMjtrkpPoY_bV6GMZ-5">
          <mxGeometry x="25" y="390" width="100" height="40" as="geometry" />
        </mxCell>
        <mxCell id="Mbk2w01z_fALKFXVie-h-24" style="edgeStyle=orthogonalEdgeStyle;rounded=0;orthogonalLoop=1;jettySize=auto;html=1;exitX=0.5;exitY=0;exitDx=0;exitDy=0;entryX=0.5;entryY=1;entryDx=0;entryDy=0;" edge="1" parent="s25pMjtrkpPoY_bV6GMZ-5" source="Mbk2w01z_fALKFXVie-h-18" target="Mbk2w01z_fALKFXVie-h-22">
          <mxGeometry relative="1" as="geometry" />
        </mxCell>
        <mxCell id="Mbk2w01z_fALKFXVie-h-18" value="successfully sent?" style="rhombus;whiteSpace=wrap;html=1;" vertex="1" parent="s25pMjtrkpPoY_bV6GMZ-5">
          <mxGeometry x="160" y="370" width="80" height="80" as="geometry" />
        </mxCell>
        <mxCell id="Mbk2w01z_fALKFXVie-h-25" style="edgeStyle=orthogonalEdgeStyle;rounded=0;orthogonalLoop=1;jettySize=auto;html=1;exitX=0.5;exitY=0;exitDx=0;exitDy=0;entryX=1;entryY=0.5;entryDx=0;entryDy=0;" edge="1" parent="s25pMjtrkpPoY_bV6GMZ-5" source="Mbk2w01z_fALKFXVie-h-22" target="Mbk2w01z_fALKFXVie-h-1">
          <mxGeometry relative="1" as="geometry" />
        </mxCell>
        <mxCell id="Mbk2w01z_fALKFXVie-h-22" value="display error message" style="rounded=1;whiteSpace=wrap;html=1;" vertex="1" parent="s25pMjtrkpPoY_bV6GMZ-5">
          <mxGeometry x="160" y="300" width="80" height="40" as="geometry" />
        </mxCell>
        <mxCell id="s25pMjtrkpPoY_bV6GMZ-4" value="Client" style="swimlane;startSize=20;html=1;" vertex="1" parent="1">
          <mxGeometry x="40" y="-1040" width="260" height="460" as="geometry" />
        </mxCell>
        <mxCell id="s25pMjtrkpPoY_bV6GMZ-8" value="" style="ellipse;html=1;shape=startState;fillColor=#000000;strokeColor=#ff0000;" vertex="1" parent="s25pMjtrkpPoY_bV6GMZ-4">
          <mxGeometry x="10" y="40" width="30" height="30" as="geometry" />
        </mxCell>
        <mxCell id="s25pMjtrkpPoY_bV6GMZ-9" value="" style="edgeStyle=orthogonalEdgeStyle;html=1;verticalAlign=bottom;endArrow=open;endSize=8;strokeColor=#ff0000;rounded=0;" edge="1" parent="s25pMjtrkpPoY_bV6GMZ-4" source="s25pMjtrkpPoY_bV6GMZ-8">
          <mxGeometry relative="1" as="geometry">
            <mxPoint x="55" y="90" as="targetPoint" />
          </mxGeometry>
        </mxCell>
        <mxCell id="Mbk2w01z_fALKFXVie-h-6" style="edgeStyle=orthogonalEdgeStyle;rounded=0;orthogonalLoop=1;jettySize=auto;html=1;exitX=0.5;exitY=1;exitDx=0;exitDy=0;entryX=0.5;entryY=0;entryDx=0;entryDy=0;" edge="1" parent="s25pMjtrkpPoY_bV6GMZ-4" source="Mbk2w01z_fALKFXVie-h-2" target="Mbk2w01z_fALKFXVie-h-3">
          <mxGeometry relative="1" as="geometry" />
        </mxCell>
        <mxCell id="Mbk2w01z_fALKFXVie-h-2" value="navigates to website" style="rounded=1;whiteSpace=wrap;html=1;" vertex="1" parent="s25pMjtrkpPoY_bV6GMZ-4">
          <mxGeometry x="20" y="100" width="90" height="30" as="geometry" />
        </mxCell>
        <mxCell id="Mbk2w01z_fALKFXVie-h-7" style="edgeStyle=orthogonalEdgeStyle;rounded=0;orthogonalLoop=1;jettySize=auto;html=1;exitX=0.5;exitY=1;exitDx=0;exitDy=0;entryX=0.5;entryY=0;entryDx=0;entryDy=0;" edge="1" parent="s25pMjtrkpPoY_bV6GMZ-4" source="Mbk2w01z_fALKFXVie-h-3" target="Mbk2w01z_fALKFXVie-h-4">
          <mxGeometry relative="1" as="geometry" />
        </mxCell>
        <mxCell id="Mbk2w01z_fALKFXVie-h-3" value="clicks &quot;contact vendor&quot;" style="rounded=1;whiteSpace=wrap;html=1;" vertex="1" parent="s25pMjtrkpPoY_bV6GMZ-4">
          <mxGeometry x="20" y="150" width="90" height="40" as="geometry" />
        </mxCell>
        <mxCell id="Mbk2w01z_fALKFXVie-h-8" style="edgeStyle=orthogonalEdgeStyle;rounded=0;orthogonalLoop=1;jettySize=auto;html=1;exitX=1;exitY=0.5;exitDx=0;exitDy=0;" edge="1" parent="s25pMjtrkpPoY_bV6GMZ-4" source="Mbk2w01z_fALKFXVie-h-4" target="Mbk2w01z_fALKFXVie-h-5">
          <mxGeometry relative="1" as="geometry" />
        </mxCell>
        <mxCell id="Mbk2w01z_fALKFXVie-h-4" value="is logged in?" style="rhombus;whiteSpace=wrap;html=1;" vertex="1" parent="s25pMjtrkpPoY_bV6GMZ-4">
          <mxGeometry x="20" y="210" width="80" height="60" as="geometry" />
        </mxCell>
        <mxCell id="Mbk2w01z_fALKFXVie-h-9" style="edgeStyle=orthogonalEdgeStyle;rounded=0;orthogonalLoop=1;jettySize=auto;html=1;exitX=0.5;exitY=0;exitDx=0;exitDy=0;entryX=1;entryY=0.5;entryDx=0;entryDy=0;" edge="1" parent="s25pMjtrkpPoY_bV6GMZ-4" source="Mbk2w01z_fALKFXVie-h-5" target="Mbk2w01z_fALKFXVie-h-3">
          <mxGeometry relative="1" as="geometry" />
        </mxCell>
        <mxCell id="Mbk2w01z_fALKFXVie-h-5" value="customer logs in (AD001)" style="rounded=1;whiteSpace=wrap;html=1;" vertex="1" parent="s25pMjtrkpPoY_bV6GMZ-4">
          <mxGeometry x="130" y="220" width="90" height="40" as="geometry" />
        </mxCell>
        <mxCell id="Mbk2w01z_fALKFXVie-h-15" style="edgeStyle=orthogonalEdgeStyle;rounded=0;orthogonalLoop=1;jettySize=auto;html=1;exitX=0.5;exitY=1;exitDx=0;exitDy=0;entryX=0.5;entryY=0;entryDx=0;entryDy=0;" edge="1" parent="s25pMjtrkpPoY_bV6GMZ-4" source="Mbk2w01z_fALKFXVie-h-11" target="Mbk2w01z_fALKFXVie-h-14">
          <mxGeometry relative="1" as="geometry" />
        </mxCell>
        <mxCell id="Mbk2w01z_fALKFXVie-h-11" value="fills the necessary data" style="rounded=1;whiteSpace=wrap;html=1;" vertex="1" parent="s25pMjtrkpPoY_bV6GMZ-4">
          <mxGeometry x="30" y="320" width="100" height="40" as="geometry" />
        </mxCell>
        <mxCell id="Mbk2w01z_fALKFXVie-h-14" value="submit" style="rounded=1;whiteSpace=wrap;html=1;" vertex="1" parent="s25pMjtrkpPoY_bV6GMZ-4">
          <mxGeometry x="30" y="390" width="90" height="40" as="geometry" />
        </mxCell>
        <mxCell id="Mbk2w01z_fALKFXVie-h-10" style="edgeStyle=orthogonalEdgeStyle;rounded=0;orthogonalLoop=1;jettySize=auto;html=1;exitX=0.5;exitY=1;exitDx=0;exitDy=0;entryX=0.145;entryY=1.053;entryDx=0;entryDy=0;entryPerimeter=0;" edge="1" parent="1" source="Mbk2w01z_fALKFXVie-h-4" target="Mbk2w01z_fALKFXVie-h-1">
          <mxGeometry relative="1" as="geometry" />
        </mxCell>
        <mxCell id="Mbk2w01z_fALKFXVie-h-12" style="edgeStyle=orthogonalEdgeStyle;rounded=0;orthogonalLoop=1;jettySize=auto;html=1;exitX=0.75;exitY=1;exitDx=0;exitDy=0;entryX=1;entryY=0.25;entryDx=0;entryDy=0;" edge="1" parent="1" source="Mbk2w01z_fALKFXVie-h-1" target="Mbk2w01z_fALKFXVie-h-11">
          <mxGeometry relative="1" as="geometry" />
        </mxCell>
        <mxCell id="Mbk2w01z_fALKFXVie-h-16" style="edgeStyle=orthogonalEdgeStyle;rounded=0;orthogonalLoop=1;jettySize=auto;html=1;exitX=1;exitY=0.5;exitDx=0;exitDy=0;entryX=0;entryY=0.5;entryDx=0;entryDy=0;" edge="1" parent="1" source="Mbk2w01z_fALKFXVie-h-14" target="Mbk2w01z_fALKFXVie-h-13">
          <mxGeometry relative="1" as="geometry" />
        </mxCell>
        <mxCell id="Mbk2w01z_fALKFXVie-h-19" style="edgeStyle=orthogonalEdgeStyle;rounded=0;orthogonalLoop=1;jettySize=auto;html=1;exitX=1;exitY=0.5;exitDx=0;exitDy=0;entryX=0;entryY=0.5;entryDx=0;entryDy=0;" edge="1" parent="1" source="Mbk2w01z_fALKFXVie-h-18" target="Mbk2w01z_fALKFXVie-h-17">
          <mxGeometry relative="1" as="geometry" />
        </mxCell>
        <mxCell id="Mbk2w01z_fALKFXVie-h-20" value="yes" style="edgeLabel;html=1;align=center;verticalAlign=middle;resizable=0;points=[];" connectable="0" vertex="1" parent="Mbk2w01z_fALKFXVie-h-19">
          <mxGeometry x="-0.3707" y="-4" relative="1" as="geometry">
            <mxPoint as="offset" />
          </mxGeometry>
        </mxCell>
      </root>
    </mxGraphModel>
  </diagram>
</mxfile>
